# xmcd CD database file
#
# Track frame offsets:
#	150
#	33531
#	54655
#	74069
#	96329
#	112688
#	126452
#	144807
#	170733
#	201639
#	225519
#	251250
#	273166
#	294538
#
# Disc length: 4229 seconds
#
# Revision: 0
# Processed by: cddbd v1.5.2PL0 Copyright (c) Steve Scherf et al.
# Submitted via: CDex 1.70beta2
#
DISCID=d410830e
DTITLE=Katarina Pejak, Ina Forsman, Ally Venable - Blues Caravan 2019
DYEAR=2019
DGENRE=Blues
TTITLE0=They Say I'm Different
TTITLE1=She's Coming After You
TTITLE2=Roads That Cross
TTITLE3=Turtle Blues
TTITLE4=Texas Honey
TTITLE5=Nowhere to Hide
TTITLE6=Broken
TTITLE7=All Good
TTITLE8=Miss Mistreated
TTITLE9=Genius
TTITLE10=Love me Like a Man
TTITLE11=I'm a Good Woman
TTITLE12=Sixteen Tons
TTITLE13=The House is Rockin'
EXTD=YEAR: 2019
EXTT0=
EXTT1=
EXTT2=
EXTT3=
EXTT4=
EXTT5=
EXTT6=
EXTT7=
EXTT8=
EXTT9=
EXTT10=
EXTT11=
EXTT12=
EXTT13=
PLAYORDER=
